<svg width="111" height="79" viewBox="0 0 111 79" fill="none" xmlns="http://www.w3.org/2000/svg">
<mask id="mask0_168_3" style="mask-type:alpha" maskUnits="userSpaceOnUse" x="0" y="0" width="111" height="79">
<rect width="111" height="79" fill="#D9D9D9"/>
</mask>
<g mask="url(#mask0_168_3)">
<path d="M22.2095 30.9999C22.2095 40.941 30.2683 48.9999 40.2095 48.9999L66.5835 48.9999C69.345 48.9999 71.5835 46.7613 71.5835 43.9999L71.5835 9.99988C71.5835 4.47703 67.1064 -0.00012223 61.5835 -0.000121741L27.2095 -0.000118698C24.448 -0.000118454 22.2095 2.23846 22.2095 4.99988L22.2095 30.9999Z" fill="#FFF1DA"/>
<path d="M70.1851 44.9413C68.8438 45.2456 67.5373 45.8091 66.3469 46.5965C63.2454 48.5978 61.441 51.4546 62.3168 52.9767C63.1927 54.4988 66.4169 54.1095 69.5183 52.1082C70.7248 51.3486 71.7966 50.3778 72.6677 49.2559C73.072 48.7138 73.1445 48.0383 72.853 47.5334L71.7152 45.556C71.4258 45.0495 70.8253 44.8086 70.1851 44.9413Z" fill="#D5D6DB"/>
<path d="M62.3968 17.9482C61.4242 18.169 60.4768 18.5778 59.6135 19.1488C57.3652 20.5996 56.056 22.671 56.6906 23.7738C57.3251 24.8766 59.6639 24.5941 61.912 23.1434C62.7868 22.5923 63.5639 21.8881 64.1957 21.0744C64.4885 20.6815 64.5409 20.1922 64.3296 19.8261L63.5058 18.3943C63.2961 18.0271 62.8611 17.8521 62.3968 17.9482Z" fill="#D5D6DB"/>
<path d="M49.7432 19.0786C49.5267 19.0541 49.2958 19.1126 49.0956 19.2421L43.8143 22.6503C43.3726 22.9345 43.1958 23.4818 43.4199 23.873C43.4711 23.9626 43.5413 24.0392 43.6264 24.0982L56.6431 33.1831L74.2533 21.8184L49.7432 19.0786Z" fill="#029BC5"/>
<path d="M105.414 17.794L57.4898 48.3461L29.1365 59.7716L14.6767 62.6823L13.0859 59.9451L92.9684 9.99845C95.349 8.50358 98.001 7.58602 100.656 7.33893C101.819 7.23704 102.967 7.2762 104.074 7.45499C105.056 7.6057 105.987 7.89641 106.84 8.3185C107.792 8.79674 109.603 8.85189 110.19 9.80471C110.192 9.80318 111.577 14.1776 105.414 17.794V17.794Z" fill="#E1E6E9"/>
<path d="M58.1251 44.3036L37.3927 77.7735C37.1337 78.2437 37.2874 78.7702 37.7356 78.9494C38.0107 79.0595 38.3474 79.016 38.6302 78.834L43.9073 75.4438C44.9223 74.7915 45.821 73.9629 46.5479 73.0093L86.7546 25.1404L58.1251 44.3036Z" fill="#029BC5"/>
<path d="M5.80873 43.1861C5.46289 43.0664 5.05132 43.1285 4.7039 43.3525L0.341708 46.1659C-0.252673 46.549 -0.489521 47.2854 -0.187488 47.8111C-0.129942 47.911 -0.0551905 47.999 0.0344102 48.0714L12.2562 57.9838L25.1063 49.8557L5.80873 43.1861Z" fill="#029BC5"/>
<path d="M16.3528 59.7707L9.77473 69.1002C9.67829 69.2343 9.70098 69.4026 9.82535 69.4759C9.91505 69.5288 10.0375 69.5192 10.137 69.4517L14.2136 66.8357C14.2453 66.8154 14.2739 66.7899 14.2976 66.7609L23.9093 54.9261L16.3528 59.7707Z" fill="#029BC5"/>
<path d="M103.288 7.85723C102.148 7.6718 100.965 7.6322 99.7674 7.73881C98.6013 9.38989 97.8561 11.2446 97.6058 13.118C97.5876 13.4943 97.8871 13.7652 98.2751 13.723C98.3957 13.7098 98.5156 13.6669 98.6236 13.5981L106.136 8.75382C105.258 8.31522 104.299 8.01337 103.288 7.85723Z" fill="#029BC5"/>
<path d="M86.9161 16.7654L91.821 13.6284L96.3897 21.4974L91.4848 24.6344L86.9161 16.7654Z" fill="#D5D6DB"/>
<path d="M83.8297 19.8775C83.2386 20.2566 83.0024 20.9854 83.3024 21.5051L83.7886 22.3471C84.1084 22.8536 84.8384 22.9426 85.4193 22.5459C85.9721 22.1681 86.1947 21.4815 85.9283 20.9744L85.4422 20.1325C85.1424 19.6132 84.4207 19.4989 83.8297 19.8775V19.8775Z" fill="#3A556A"/>
<path d="M79.4212 22.6501C78.8302 23.0292 78.5939 23.758 78.894 24.2777L79.3801 25.1197C79.6999 25.6262 80.4299 25.7152 81.0108 25.3185C81.5637 24.9407 81.7863 24.2541 81.5199 23.747L81.0337 22.905C80.7337 22.3859 80.012 22.2717 79.4212 22.6501V22.6501Z" fill="#3A556A"/>
<path d="M75.0113 25.4233C74.4209 25.803 74.1855 26.5309 74.4853 27.0501L74.9714 27.8921C75.2912 28.3986 76.0213 28.4876 76.6022 28.0909C77.155 27.7131 77.3776 27.0265 77.1112 26.5195L76.625 25.6775C76.325 25.1578 75.6026 25.044 75.0113 25.4233V25.4233Z" fill="#3A556A"/>
<path d="M70.6028 28.1958C70.0124 28.5754 69.777 29.3034 70.0768 29.8226L70.563 30.6646C70.8828 31.1711 71.6128 31.2601 72.1937 30.8634C72.7465 30.4856 72.9692 29.799 72.7027 29.2919L72.2166 28.45C71.9163 27.9304 71.1939 27.8166 70.6028 28.1958V28.1958Z" fill="#3A556A"/>
<path d="M66.1948 30.9684C65.604 31.3483 65.3685 32.0765 65.6685 32.596L66.1549 33.4383C66.4548 33.9576 67.1769 34.0713 67.7678 33.6923C68.3586 33.3133 68.5945 32.5851 68.2947 32.0659L67.8082 31.2235C67.5091 30.7038 66.7873 30.5893 66.196 30.9676C66.1955 30.968 66.1953 30.9681 66.1948 30.9684Z" fill="#3A556A"/>
<path d="M61.7863 33.7409C61.1956 34.1207 60.96 34.8489 61.26 35.3684L61.7465 36.2108C62.0463 36.73 62.7684 36.8438 63.3593 36.4648C63.9502 36.0858 64.1861 35.3576 63.8862 34.8383L63.3998 33.996C63.1007 33.4762 62.3788 33.3618 61.7876 33.7401C61.7871 33.7404 61.7866 33.7407 61.7863 33.7409Z" fill="#3A556A"/>
<path d="M57.3775 36.5134C56.7867 36.8932 56.5512 37.6214 56.8512 38.1409L57.3376 38.9832C57.6382 39.502 58.3607 39.6145 58.9509 39.2351C59.5402 38.8562 59.7756 38.1296 59.4771 37.6109L58.9907 36.7686C58.6909 36.249 57.9689 36.1347 57.3775 36.5134Z" fill="#3A556A"/>
<path d="M52.9688 39.2858C52.378 39.6656 52.1425 40.3939 52.4425 40.9134L52.9289 41.7557C53.2295 42.2745 53.952 42.3871 54.5422 42.0076C55.1315 41.6287 55.3669 40.9021 55.0684 40.3834L54.582 39.5411C54.2822 39.0214 53.5602 38.9071 52.9688 39.2858Z" fill="#3A556A"/>
<path d="M48.5605 42.0583C47.9697 42.4381 47.7342 43.1663 48.0342 43.6858L48.5206 44.5281C48.8212 45.0469 49.5437 45.1595 50.1339 44.78C50.7232 44.4011 50.9586 43.6745 50.6601 43.1559L50.1737 42.3136C49.8737 41.7941 49.1516 41.6798 48.5605 42.0583Z" fill="#3A556A"/>
<path d="M44.1506 44.8315C43.5597 45.2105 43.3238 45.9387 43.6236 46.4579L43.6243 46.459L44.1107 47.3014C44.4113 47.8201 45.1338 47.9327 45.724 47.5532C46.3132 47.1744 46.5487 46.4477 46.2502 45.9291L45.7638 45.0867C45.464 44.5671 44.7419 44.4528 44.1506 44.8315Z" fill="#3A556A"/>
<path d="M39.7432 47.6032C39.1523 47.9822 38.9164 48.7104 39.2163 49.2296L39.2169 49.2307L39.7034 50.073C40.004 50.5918 40.7264 50.7044 41.3167 50.3249C41.9059 49.9461 42.1414 49.2194 41.8429 48.7008L41.3564 47.8585C41.0564 47.339 40.3344 47.2247 39.7432 47.6032Z" fill="#3A556A"/>
</g>
</svg>
